<?xml version="1.0" encoding="UTF-8"?>
<svg version="1.1" xmlns="http://www.w3.org/2000/svg" width="1536" height="1024">
<path d="M0 0 C4.49859565 3.55046114 7.11055717 8.32129348 8.1875 13.9375 C10.04744443 40.72785346 -2.47150272 65.91534448 -13.67871094 89.51269531 C-15.13373228 92.62451099 -16.48700838 95.76860944 -17.8125 98.9375 C-17.21824219 98.14988281 -16.62398437 97.36226563 -16.01171875 96.55078125 C-9.86387814 88.45279892 -3.45309611 80.63525438 3.1875 72.9375 C4.14462891 71.82761719 4.14462891 71.82761719 5.12109375 70.6953125 C6.79870527 68.76586553 8.4912768 66.85059192 10.1875 64.9375 C10.81398438 64.21820313 11.44046875 63.49890625 12.0859375 62.7578125 C42.76055833 27.97803795 42.76055833 27.97803795 58.80859375 26.734375 C62.83049559 26.66743627 66.32984426 26.66948258 70.1875 27.875 C73.80749806 31.608123 75.06513074 36.07405928 75.28515625 41.22265625 C74.379224 54.4581054 69.19602682 67.08512147 64 79.125 C63.17834208 81.0504208 62.35956606 82.97701122 61.54362488 84.90486145 C60.81412865 86.62529111 60.07686962 88.34242325 59.33911133 90.05932617 C58.41595059 92.36654304 57.6966697 94.51352916 57.1875 96.9375 C64.49994096 88.4402594 64.49994096 88.4402594 71.5 79.6875 C76.66876076 72.93415565 82.14597944 66.41921032 87.58300781 59.88134766 C88.62007134 58.62494172 89.646315 57.35949052 90.65917969 56.08349609 C91.79311966 54.66669417 92.9848019 53.29642046 94.1875 51.9375 C94.8475 51.9375 95.5075 51.9375 96.1875 51.9375 C96.54497314 51.09541992 96.54497314 51.09541992 96.90966797 50.23632812 C99.68244457 45.24808501 104.29188105 41.44029721 108.3125 37.4375 C108.80792297 36.94328552 109.30334595 36.44907104 109.81378174 35.93988037 C122.97026609 22.8704442 141.05236354 5.06099345 160.9140625 4.703125 C164.33882248 5.05619304 166.46203149 5.82526191 169.1875 7.9375 C173.40750468 13.70483972 172.76725692 19.93604046 171.7890625 26.6875 C169.87413101 35.83938035 165.58137569 43.78586889 161.1875 51.9375 C160.57575928 53.0826709 160.57575928 53.0826709 159.95166016 54.25097656 C154.82917668 63.81372987 149.45924988 73.20022536 143.875 82.5 C136.95752745 94.05331997 130.78517703 105.96182027 124.69580078 117.96777344 C123.41100666 120.49743282 122.11382396 123.01991683 120.80859375 125.5390625 C115.71184518 135.44331403 111.35965665 145.61366424 107.1875 155.9375 C106.89568848 156.64438965 106.60387695 157.3512793 106.30322266 158.07958984 C100.28332439 172.71423001 95.02497476 189.09676985 100.2109375 204.703125 C102.1017553 209.02931612 104.75090649 211.20249867 108.875 213.3125 C118.4638755 215.12172179 127.44594041 212.14690325 135.37890625 206.77734375 C139.04238283 204.10822376 142.70325123 201.42849536 145.90625 198.2109375 C147.58222842 196.54517846 148.85284477 196.16343438 151.1875 195.9375 C151.8475 196.5975 152.5075 197.2575 153.1875 197.9375 C152.86651749 203.45839925 149.73573128 206.01450514 145.91796875 209.65625 C135.26540264 218.55624801 124.62496813 222.61199924 110.84375 222.28125 C102.04531104 221.45404634 94.93629137 217.66997345 89.1875 210.9375 C81.02450458 198.12444002 82.1698971 183.50498742 85.07226562 169.16967773 C90.12316955 146.96433083 100.49762571 125.00532915 112.16796875 105.50390625 C113.93862374 102.48020052 115.47745324 99.36266521 117.0234375 96.21875 C119.97017602 90.27330146 123.23261668 84.57477116 126.625 78.875 C141.10928225 54.28743027 141.10928225 54.28743027 154.1875 28.9375 C154.51991699 28.2556665 154.85233398 27.57383301 155.19482422 26.87133789 C157.03816823 23.03819095 157.03816823 23.03819095 156.1875 18.9375 C141.34314829 19.59724896 129.46875359 32.66152262 119.28125 42.1875 C117.1875 43.9375 117.1875 43.9375 114.1875 44.9375 C113.49897873 46.25968028 112.83426865 47.59440189 112.1875 48.9375 C110.69921875 50.3671875 110.69921875 50.3671875 108.875 51.8125 C98.84720435 60.30877777 90.33403181 70.67839299 82.1875 80.9375 C81.23253253 82.12431122 80.2767549 83.31047085 79.3203125 84.49609375 C65.11541802 102.1302276 51.10867539 119.96905822 39.40869141 139.39306641 C31.04306725 153.07332239 31.04306725 153.07332239 25.64306641 154.70751953 C22.60118472 154.99241241 20.87026515 154.35340383 18.1875 152.9375 C16.61852577 149.79955154 16.91015884 147.4285319 17.1875 143.9375 C18.2572607 140.8219673 19.69969625 137.93496536 21.1875 135 C21.59468262 134.16879639 22.00186523 133.33759277 22.42138672 132.48120117 C23.6615709 129.95872333 24.92081561 127.4467606 26.1875 124.9375 C26.55004883 124.21755859 26.91259766 123.49761719 27.28613281 122.75585938 C30.20585839 116.96052117 30.20585839 116.96052117 31.30224609 114.79614258 C33.96628217 109.49397999 36.3548244 104.09443075 38.68847656 98.64013672 C40.34097888 94.79839783 42.11195955 91.07781168 44.0625 87.375 C51.42358314 72.92912103 61.83287646 52.42582759 61.1875 35.9375 C45.51429051 40.04850577 32.18383341 53.56597109 22.00390625 65.8125 C20.0903196 68.05119062 18.07427105 70.17580732 16.04345703 72.30786133 C9.31200284 79.41517812 3.45314589 86.9854962 -2.30810547 94.88916016 C-3.80258975 96.9240065 -5.31991954 98.93924564 -6.84765625 100.94921875 C-23.27997405 122.57041087 -38.30828477 145.33387244 -51.66796875 168.98046875 C-52.15894043 169.84406006 -52.64991211 170.70765137 -53.15576172 171.59741211 C-54.11460031 173.2877276 -55.06582098 174.98239374 -56.00830078 176.68188477 C-56.44513184 177.45201904 -56.88196289 178.22215332 -57.33203125 179.015625 C-57.71464111 179.70043945 -58.09725098 180.38525391 -58.49145508 181.09082031 C-60.04293596 183.25962486 -61.54796081 184.53478769 -63.8125 185.9375 C-67.43311933 186.3254235 -69.89807799 186.33609421 -73.25 184.875 C-75.64763495 181.90193266 -75.12948667 179.68023421 -74.8125 175.9375 C-73.69793567 173.37173896 -72.59009331 171.13900832 -71.1875 168.75 C-70.43874268 167.4148251 -69.69135808 166.07887951 -68.9453125 164.7421875 C-68.57696289 164.09088867 -68.20861328 163.43958984 -67.82910156 162.76855469 C-66.48399548 160.34581318 -65.26970546 157.86892746 -64.0625 155.375 C-61.19754262 149.56680773 -58.06616057 143.91852728 -54.9375 138.25 C-50.53852766 130.25965807 -46.46101107 122.20096975 -42.65625 113.9140625 C-40.87760218 110.04343966 -38.98545242 106.23803838 -37.0625 102.4375 C-11.6575751 58.3851866 -11.6575751 58.3851866 -5.5625 10 C-7.07369482 7.50652856 -8.14655415 7.03355314 -10.8125 5.9375 C-22.40396029 3.96350874 -33.55431495 10.77293125 -42.8125 16.9375 C-48.89991673 21.32983329 -54.87229317 25.87862203 -60.1015625 31.27734375 C-62.8125 33.9375 -62.8125 33.9375 -64.8125 33.9375 C-64.8125 34.5975 -64.8125 35.2575 -64.8125 35.9375 C-65.90797887 37.0683169 -67.01159264 38.19174453 -68.140625 39.2890625 C-82.66135107 53.60622699 -97.11965822 73.48709522 -98.25 94.5625 C-97.99653929 100.99118528 -95.50895546 106.24104454 -91 110.75 C-90.278125 111.471875 -89.55625 112.19375 -88.8125 112.9375 C-89 115.25 -89 115.25 -89.8125 116.9375 C-95.22759357 117.77059132 -98.42435153 115.8947301 -102.69140625 112.84375 C-108.02388774 108.05139095 -110.4255125 102.03227075 -110.8125 94.9375 C-111.90834316 73.02063678 -99.85584903 56.04782282 -86.625 39.81640625 C-85.7278125 38.88634766 -85.7278125 38.88634766 -84.8125 37.9375 C-84.1525 37.9375 -83.4925 37.9375 -82.8125 37.9375 C-82.55210937 37.34195313 -82.29171875 36.74640625 -82.0234375 36.1328125 C-80.72483375 33.77856957 -79.48770844 32.53398303 -77.4375 30.8125 C-76.71820313 30.20792969 -75.99890625 29.60335938 -75.2578125 28.98046875 C-74.45085937 28.30628906 -73.64390625 27.63210938 -72.8125 26.9375 C-71.94367188 26.17050781 -71.07484375 25.40351563 -70.1796875 24.61328125 C-54.05135698 10.61635136 -22.19818448 -12.50718603 0 0 Z " fill="#ECECEC" transform="translate(533.8125,341.0625)"/>
<path d="M0 0 C5.62469381 4.3463543 8.43573325 9.18739521 9.75 16.125 C10.29664747 30.33783428 3.91477874 40.36971752 -5.3828125 50.43359375 C-15.220048 60.60578889 -26.57912365 68.60393174 -38.13964844 76.65380859 C-41.3326085 78.8797199 -44.51370524 81.12186475 -47.6875 83.375 C-48.25766846 83.77686523 -48.82783691 84.17873047 -49.4152832 84.59277344 C-53.8382541 87.7421815 -57.94809657 91.17873193 -61.96875 94.82421875 C-64.25 96.125 -64.25 96.125 -67.21875 96.20703125 C-70.55978755 95.01441862 -71.69505881 93.63730685 -73.78027344 90.85009766 C-76.743146 87.37241369 -80.66970901 84.9407011 -84.375 82.3125 C-86.08862561 81.07092117 -87.8008738 79.82743893 -89.51171875 78.58203125 C-90.3320459 77.98600098 -91.15237305 77.3899707 -91.99755859 76.77587891 C-105.58786265 66.8151553 -122.54357448 54.02152395 -125.72265625 36.5234375 C-126.98246716 26.24222205 -125.29741809 18.29865036 -119.4375 9.6796875 C-112.96565447 2.12149647 -104.73945128 -1.29529716 -95.1015625 -2.15625 C-84.46182654 -2.62599552 -74.97653428 -0.41531117 -66.75 6.625 C-65.56465038 7.77267961 -64.39621544 8.93823449 -63.25 10.125 C-62.46109375 10.89650391 -62.46109375 10.89650391 -61.65625 11.68359375 C-60.50380963 12.81362555 -59.3735998 13.96628771 -58.25 15.125 C-57.75113281 14.6403125 -57.25226563 14.155625 -56.73828125 13.65625 C-41.19070826 -0.85853986 -20.05511132 -11.57025653 0 0 Z " fill="#E62A31" transform="translate(849.25,421.875)"/>
<path d="M0 0 C1 1 1 1 1.5 3.9375 C1.42381992 8.66066507 -1.22711795 11.40081988 -3.95703125 15.0625 C-21.85767722 40.80109612 -31.58593133 74.64570832 -42 104 C-31.04906351 102.77303302 -31.04906351 102.77303302 -20.8671875 98.8046875 C-19 98 -19 98 -15 98 C-14.25 100.25 -14.25 100.25 -14 103 C-17.03044887 107.76213394 -22.82432958 109.44247468 -28 111 C-33.66674539 112.15807196 -39.21182385 113 -45 113 C-47.34909914 122.16017432 -49.57591788 131.34452783 -51.6875 140.5625 C-51.90172607 141.48949707 -52.11595215 142.41649414 -52.33666992 143.37158203 C-54.39127265 152.41052379 -55.25431082 161.04686279 -55.375 170.3125 C-55.43107422 171.92801758 -55.43107422 171.92801758 -55.48828125 173.57617188 C-55.57050344 181.11777345 -54.25754906 186.69762363 -50 193 C-46.33756239 196.18053792 -42.80780111 196.84737139 -38 197 C-24.25998828 195.00109999 -14.21057441 187.68950555 -4.8828125 177.7421875 C-4.26148438 177.16726563 -3.64015625 176.59234375 -3 176 C-0.75 176.25 -0.75 176.25 1 177 C1.45691027 180.8380463 1.26252245 182.59746558 -0.875 185.875 C-12.15130918 197.94096668 -26.36895546 204.94741296 -42.75 206.3125 C-49.32490163 206.2101669 -56.21847764 203.67773988 -61.4375 199.6875 C-69.61097519 191.11531871 -71.556611 180.30432884 -71.4375 168.8125 C-71.43065186 167.77512695 -71.42380371 166.73775391 -71.41674805 165.66894531 C-71.05374656 147.69561313 -66.61917781 130.28405469 -62 113 C-68.15715759 112.45042344 -74.31395418 111.94123885 -80.48046875 111.5078125 C-84.22780061 111.24225778 -87.90477067 110.90028906 -91.61328125 110.3046875 C-95.59370437 109.85001819 -98.19921425 109.70792147 -102 111 C-106.27038675 114.75427763 -108.94240774 119.85992931 -111.70263672 124.75537109 C-113.71689411 128.24033203 -116.00748943 131.51563387 -118.3125 134.8125 C-118.75883789 135.46130127 -119.20517578 136.11010254 -119.66503906 136.77856445 C-128.08958952 149.00128697 -136.82767158 160.96033662 -146.5703125 172.16796875 C-148.72521765 174.6797151 -150.74388786 177.24466842 -152.75 179.875 C-167.69388937 198.60060832 -188.77142839 217.04538009 -213.33984375 220.46484375 C-224.544018 221.54754897 -234.71554918 220.8715427 -244 214 C-249.25576421 209.48788121 -251.95800596 205.17829026 -252.9140625 198.2734375 C-253.0275542 195.27106623 -252.8093665 193.43871137 -251 191 C-248.5 190.0625 -248.5 190.0625 -246 190 C-243.57506594 192.42493406 -243.66936235 193.48256323 -243.25 196.8125 C-242.58677238 200.43152946 -242.02207577 202.58589839 -239.1875 205 C-231.91089374 209.56571373 -225.46702058 209.82195503 -217 209 C-195.43073771 203.88054859 -174.91436026 185.49233274 -162.42553711 167.76513672 C-161.95510986 167.1826416 -161.48468262 166.60014648 -161 166 C-160.34 166 -159.68 166 -159 166 C-158.7225293 165.40646729 -158.44505859 164.81293457 -158.15917969 164.20141602 C-157.07412092 162.14076417 -155.94769819 160.55194649 -154.453125 158.77734375 C-153.94499268 158.16616699 -153.43686035 157.55499023 -152.91333008 156.92529297 C-152.36443115 156.26932129 -151.81553223 155.61334961 -151.25 154.9375 C-143.79305764 145.89350548 -136.86504873 136.49720083 -130 127 C-129.23816406 125.9490918 -129.23816406 125.9490918 -128.4609375 124.87695312 C-122.44621346 116.62807722 -122.44621346 116.62807722 -117 108 C-145.21972693 105.51855886 -145.21972693 105.51855886 -172.02734375 113.1328125 C-174.01807637 114.00794644 -175.85866422 114.62075695 -178 115 C-179 114 -179 114 -179.375 111.1875 C-179 108 -179 108 -176.859375 105.96484375 C-163.49635342 96.78233029 -145.88372666 95.30895822 -130.31640625 98.0703125 C-118.62823696 100.42509893 -118.62823696 100.42509893 -107.54931641 97.52148438 C-103.20085975 93.41759669 -100.20572908 88.48127279 -97.30371094 83.29248047 C-95.59309793 80.28449242 -93.62303917 77.66985907 -91.5 74.9375 C-90.8090625 74.01066406 -90.118125 73.08382812 -89.40625 72.12890625 C-81.39237307 61.70826433 -72.89040478 51.68028951 -64 42 C-62.54153576 40.35428267 -61.08320567 38.70844644 -59.625 37.0625 C-23.432001 -3.02627319 -23.432001 -3.02627319 0 0 Z M-22 15 C-29.71289127 20.95530764 -36.90796401 27.33227386 -44 34 C-44.95519531 34.87398438 -44.95519531 34.87398438 -45.9296875 35.765625 C-50.32956918 39.93393396 -53.97485434 44.67818565 -57.66992188 49.46411133 C-60.85478925 53.5822315 -64.15718659 57.56322846 -67.5625 61.5 C-72.64347868 67.42078765 -77.17963434 73.6344952 -81.62744141 80.0390625 C-83.16553172 82.23649071 -84.72766862 84.41562651 -86.29296875 86.59375 C-87.40368206 88.14580741 -88.51435966 89.69789037 -89.625 91.25 C-90.15859131 91.98959961 -90.69218262 92.72919922 -91.24194336 93.49121094 C-91.73186768 94.17989258 -92.22179199 94.86857422 -92.7265625 95.578125 C-93.16564941 96.19075195 -93.60473633 96.80337891 -94.05712891 97.43457031 C-95.17198295 98.98096468 -95.17198295 98.98096468 -95 101 C-77.06141461 103.36297241 -77.06141461 103.36297241 -59 104 C-55.71558057 96.34291753 -52.71253062 88.61031264 -49.85302734 80.78588867 C-42.53623504 60.76589821 -34.27054719 41.36953215 -23.90771484 22.70776367 C-22.88222149 20.83489771 -21.93259952 18.92081276 -21 17 C-21.495 16.01 -21.495 16.01 -22 15 Z " fill="#EAEAEB" transform="translate(1080,339)"/>
<path d="M0 0 C5.62469381 4.3463543 8.43573325 9.18739521 9.75 16.125 C10.29664747 30.33783428 3.91477874 40.36971752 -5.3828125 50.43359375 C-15.220048 60.60578889 -26.57912365 68.60393174 -38.13964844 76.65380859 C-41.3326085 78.8797199 -44.51370524 81.12186475 -47.6875 83.375 C-48.25766846 83.77686523 -48.82783691 84.17873047 -49.4152832 84.59277344 C-53.8382541 87.7421815 -57.94809657 91.17873193 -61.96875 94.82421875 C-64.25 96.125 -64.25 96.125 -67.21875 96.20703125 C-70.55978755 95.01441862 -71.69505881 93.63730685 -73.78027344 90.85009766 C-76.743146 87.37241369 -80.66970901 84.9407011 -84.375 82.3125 C-86.08862561 81.07092117 -87.8008738 79.82743893 -89.51171875 78.58203125 C-90.3320459 77.98600098 -91.15237305 77.3899707 -91.99755859 76.77587891 C-105.58786265 66.8151553 -122.54357448 54.02152395 -125.72265625 36.5234375 C-126.98246716 26.24222205 -125.29741809 18.29865036 -119.4375 9.6796875 C-112.96565447 2.12149647 -104.73945128 -1.29529716 -95.1015625 -2.15625 C-84.46182654 -2.62599552 -74.97653428 -0.41531117 -66.75 6.625 C-65.56465038 7.77267961 -64.39621544 8.93823449 -63.25 10.125 C-62.46109375 10.89650391 -62.46109375 10.89650391 -61.65625 11.68359375 C-60.50380963 12.81362555 -59.3735998 13.96628771 -58.25 15.125 C-57.75113281 14.6403125 -57.25226563 14.155625 -56.73828125 13.65625 C-41.19070826 -0.85853986 -20.05511132 -11.57025653 0 0 Z M-27.25 4.125 C-27.95769531 4.28613281 -28.66539062 4.44726562 -29.39453125 4.61328125 C-39.86494459 7.38652587 -48.57036041 15.09478166 -54.25 24.125 C-56.25 27.125 -56.25 27.125 -58.1953125 27.63671875 C-58.91460938 27.69472656 -59.63390625 27.75273437 -60.375 27.8125 C-61.65375 27.915625 -62.9325 28.01875 -64.25 28.125 C-64.33636719 27.54492188 -64.42273438 26.96484375 -64.51171875 26.3671875 C-65.49515629 20.8996357 -66.87186611 16.78524127 -71.25 13.125 C-80.75630314 6.56149087 -89.75285404 4.45364749 -101.25 6.125 C-107.65572218 8.68728887 -111.79874775 13.25460171 -115.4375 19 C-116.59653073 22.03131114 -116.92723517 24.89735167 -117.25 28.125 C-117.415 29.300625 -117.58 30.47625 -117.75 31.6875 C-117.5868995 42.1667074 -109.30586138 52.14375905 -102.25 59.125 C-99.1542076 61.74864782 -95.921421 64.13564842 -92.625 66.5 C-90.86084635 67.79011903 -89.09783228 69.08179777 -87.3359375 70.375 C-86.04574707 71.31859375 -86.04574707 71.31859375 -84.72949219 72.28125 C-80.58152752 75.36567587 -76.55422082 78.60283817 -72.56396484 81.88818359 C-68.82903608 85.00474952 -68.82903608 85.00474952 -64.25 86.125 C-62.62392147 84.81029821 -61.012837 83.47328991 -59.4765625 82.0546875 C-56.84245555 79.77179481 -54.06499757 77.84234019 -51.1875 75.875 C-50.05074168 75.09641194 -48.91402383 74.31776478 -47.77734375 73.5390625 C-46.90698486 72.94399902 -46.90698486 72.94399902 -46.01904297 72.33691406 C-17.64402183 53.98703272 -17.64402183 53.98703272 0.1875 26.9375 C1.19820938 20.08713642 1.33369619 14.20835617 -2.25 8.125 C-6.06872624 3.9337151 -10.34814645 2.38188962 -15.9296875 2.05078125 C-19.88150829 2.17718629 -23.46443884 3.03491694 -27.25 4.125 Z " fill="#ECEAEB" transform="translate(849.25,421.875)"/>
<path d="M0 0 C2 2 2 2 2 3.9375 C0.44185963 7.15116452 -1.72726975 7.59139447 -5 9 C-8.75847857 10.19684006 -12.55656632 11.20123365 -16.375 12.1875 C-17.37789062 12.46013672 -18.38078125 12.73277344 -19.4140625 13.01367188 C-25.10156771 14.49882539 -30.11941175 15.42004202 -36 15 C-37 14 -37 14 -37.375 11.625 C-37.25125 10.75875 -37.1275 9.8925 -37 9 C-32.03598335 5.46884422 -26.56545449 4.30885265 -20.75 2.8125 C-19.75097656 2.53986328 -18.75195312 2.26722656 -17.72265625 1.98632812 C-11.64841034 0.40226007 -6.28011702 -0.48551105 0 0 Z " fill="#DCDCDD" transform="translate(877,485)"/>
<path d="M0 0 C1.125 4.75 1.125 4.75 0 7 C-2.8916569 8.43965321 -5.96732989 9.4566015 -9 10.5625 C-9.82628906 10.87896484 -10.65257812 11.19542969 -11.50390625 11.52148438 C-16.82781676 13.48358285 -22.25902574 15.21046654 -28 15 C-30.125 13.3125 -30.125 13.3125 -31 11 C-30.84399414 8.97558594 -30.84399414 8.97558594 -30 7 C-27.99389648 5.90332031 -27.99389648 5.90332031 -25.37109375 5.078125 C-24.41783203 4.77519531 -23.46457031 4.47226562 -22.48242188 4.16015625 C-21.47759766 3.85980469 -20.47277344 3.55945313 -19.4375 3.25 C-18.45974609 2.93417969 -17.48199219 2.61835937 -16.47460938 2.29296875 C-10.7762863 0.52965645 -5.95995104 -0.36851065 0 0 Z " fill="#E0DFE0" transform="translate(751,511)"/>
<path d="M0 0 C9.53709257 0.07480073 18.99440827 2.83343949 27.375 7.3125 C26.5 12.1875 26.5 12.1875 25.375 13.3125 C18.3693205 12.8671339 12.01707069 11.26090464 5.3125 9.25 C3.87100586 8.82750977 3.87100586 8.82750977 2.40039062 8.39648438 C0.05653571 7.70848716 -2.28507993 7.0137399 -4.625 6.3125 C-5.00718767 4.65635343 -5.33895102 2.98792976 -5.625 1.3125 C-3.99798805 -0.31451195 -2.25146295 0.06309409 0 0 Z " fill="#E1E1E2" transform="translate(700.625,485.6875)"/>
<path d="M0 0 C7.32482235 0.1308004 21.60004004 2.60004004 27 8 C27.25 10.4375 27.25 10.4375 27 13 C23.59482784 15.27011477 22.14508818 15.1247219 18.20654297 14.51171875 C14.44844484 13.64017928 11.05110467 12.11912873 7.5625 10.5 C6.84384766 10.17902344 6.12519531 9.85804688 5.38476562 9.52734375 C0.1764872 7.1764872 0.1764872 7.1764872 -1 6 C-1.125 3.5 -1.125 3.5 -1 1 C-0.67 0.67 -0.34 0.34 0 0 Z " fill="#DEDEDE" transform="translate(818,511)"/>
<path d="M0 0 C0 4.23884182 -2.15494861 6.29829809 -4.58984375 9.6484375 C-6.08414902 12.14032607 -6.60096732 14.14110766 -7 17 C-6.01 17 -5.02 17 -4 17 C-3.67 15.68 -3.34 14.36 -3 13 C-1.89803432 15.86511076 -1.98597056 16.95878852 -3 19.9375 C-4.06565385 23.20106491 -3.95231147 24.76214101 -3 28 C-2.360625 27.34 -1.72125 26.68 -1.0625 26 C1 24 1 24 2 24 C2 28.62 2 33.24 2 38 C-3.77759456 33.24198095 -8.12598561 26.02970544 -9.4140625 18.6171875 C-9.4375 16.5625 -9.4375 16.5625 -9 13 C-8.938125 12.0925 -8.87625 11.185 -8.8125 10.25 C-7.6726745 7.09356014 -5.66405371 5.96632536 -3 4 C-1.23676495 1.87396815 -1.23676495 1.87396815 0 0 Z " fill="#7A1A1F" transform="translate(741,437)"/>
<path d="M0 0 C0.66 0 1.32 0 2 0 C4.27524049 6.82572148 2.81267624 13.55042006 0 20 C-1.79420178 22.56575421 -3.76285335 24.81353305 -6 27 C-6.33 26.01 -6.66 25.02 -7 24 C-6 22.66666667 -5 21.33333333 -4 20 C-3.26739841 17.68652128 -2.588562 15.354248 -2 13 C-3.98 13.99 -3.98 13.99 -6 15 C-2.9448457 3.84110309 -2.9448457 3.84110309 0 0 Z " fill="#2D0709" transform="translate(847,435)"/>
<path d="M0 0 C-2 3 -2 3 -5.4375 4.25 C-10.14136296 6.56066952 -10.31360895 8.20709912 -12 13 C-12.99 13.495 -12.99 13.495 -14 14 C-14 12.68 -14 11.36 -14 10 C-15.98 12.64 -17.96 15.28 -20 18 C-20.66 17.67 -21.32 17.34 -22 17 C-20.34299291 10.20627094 -16.42228674 5.29745416 -10.5625 1.5625 C-6.72160721 -0.1221021 -4.14613397 -0.33845992 0 0 Z " fill="#C71F28" transform="translate(755,428)"/>
<path d="M0 0 C0.33 0.99 0.66 1.98 1 3 C-9.37357631 10.48291572 -9.37357631 10.48291572 -15 13 C-15.66 11.68 -16.32 10.36 -17 9 C-16.01 8.67 -15.02 8.34 -14 8 C-13.5875 7.525625 -13.175 7.05125 -12.75 6.5625 C-10.19188379 4.27846767 -7.27002796 3.91790259 -4 3 C-1.64040542 1.50513154 -1.64040542 1.50513154 0 0 Z " fill="#F7333A" transform="translate(814,483)"/>
<path d="M0 0 C0.33 0 0.66 0 1 0 C1 4.62 1 9.24 1 14 C-2.68006822 10.61831569 -4.9785845 7.57478244 -7 3 C-5.68 3 -4.36 3 -3 3 C-1.31201173 1.56249809 -1.31201173 1.56249809 0 0 Z " fill="#DD282F" transform="translate(742,461)"/>
<path d="M0 0 C0.6328125 1.8203125 0.6328125 1.8203125 1 4 C-0.60198294 6.16738868 -2.17849119 8.03911453 -4 10 C-4.94399144 11.11955858 -5.88183687 12.24433763 -6.8125 13.375 C-7.534375 14.24125 -8.25625 15.1075 -9 16 C-9 12.42424104 -7.91159393 10.94704065 -6 8 C-7.98 8.66 -9.96 9.32 -12 10 C-9.62226815 7.49914935 -7.04733058 5.41316697 -4.3125 3.3125 C-3.50425781 2.68988281 -2.69601562 2.06726563 -1.86328125 1.42578125 C-1.24839844 0.95527344 -0.63351562 0.48476563 0 0 Z " fill="#BB1921" transform="translate(829,437)"/>
<path d="M0 0 C-2.0762657 1.03513247 -4.16131479 2.05266211 -6.25 3.0625 C-7.41015625 3.63097656 -8.5703125 4.19945312 -9.765625 4.78515625 C-13 6 -13 6 -15.234375 5.80859375 C-17 5 -17 5 -20 3 C-6.50954673 -1.86390492 -6.50954673 -1.86390492 0 0 Z " fill="#F53239" transform="translate(835,425)"/>
<path d="M0 0 C0.66 0.99 1.32 1.98 2 3 C-1.3 6.3 -4.6 9.6 -8 13 C-9.32 12.01 -10.64 11.02 -12 10 C-11.30132813 9.44570313 -10.60265625 8.89140625 -9.8828125 8.3203125 C-8.97273437 7.59585937 -8.06265625 6.87140625 -7.125 6.125 C-6.22007812 5.40570313 -5.31515625 4.68640625 -4.3828125 3.9453125 C-1.99734824 2.06439526 -1.99734824 2.06439526 0 0 Z " fill="#C8252C" transform="translate(839,460)"/>
<path d="M0 0 C0.66 0.33 1.32 0.66 2 1 C-5.26 8.26 -12.52 15.52 -20 23 C-20 18.68381834 -17.86729652 17.07210341 -15 14 C-14.34 14 -13.68 14 -13 14 C-12.75121094 13.41347656 -12.50242187 12.82695312 -12.24609375 12.22265625 C-10.82588804 9.68943667 -9.28816254 8.29014647 -7.0625 6.4375 C-4.60267986 4.3730902 -2.23631078 2.30641457 0 0 Z " fill="#C1C1C2" transform="translate(464,365)"/>
<path d="M0 0 C0.226875 0.61875 0.45375 1.2375 0.6875 1.875 C2.43433055 4.70320184 3.81115493 5.18424894 7 6 C9.7336432 5.70480232 9.7336432 5.70480232 12 5 C12 7.31 12 9.62 12 12 C8.0479482 11.41827275 5.77904947 9.44842259 2.75 6.9375 C1.85796875 6.20402344 0.9659375 5.47054688 0.046875 4.71484375 C-0.62859375 4.14894531 -1.3040625 3.58304687 -2 3 C-1.34 2.67 -0.68 2.34 0 2 C0 1.34 0 0.68 0 0 Z " fill="#4F0A0D" transform="translate(763,488)"/>
<path d="M0 0 C0.66 0.99 1.32 1.98 2 3 C1.484375 3.7425 0.96875 4.485 0.4375 5.25 C-1.24942772 7.83215454 -1.24942772 7.83215454 -0.6875 10.3125 C-0.460625 10.869375 -0.23375 11.42625 0 12 C-0.66 11.67 -1.32 11.34 -2 11 C-2.33 11.99 -2.66 12.98 -3 14 C-3.99 14 -4.98 14 -6 14 C-5.62257767 7.83543524 -3.84129692 4.82624485 0 0 Z " fill="#DE212A" transform="translate(740,440)"/>
<path d="M0 0 C0.66 0 1.32 0 2 0 C2 0.66 2 1.32 2 2 C2.66 2 3.32 2 4 2 C4.33 2.99 4.66 3.98 5 5 C5.99 5 6.98 5 8 5 C8 6.32 8 7.64 8 9 C3.61537866 8.49890042 1.1999003 7.01704885 -2 4 C-2 3.34 -2 2.68 -2 2 C-1.34 2 -0.68 2 0 2 C0 1.34 0 0.68 0 0 Z " fill="#4E0F12" transform="translate(753,480)"/>
<path d="M0 0 C1.25127906 3.54667178 0.72285053 5.72253438 -0.4375 9.25 C-0.72496094 10.14203125 -1.01242187 11.0340625 -1.30859375 11.953125 C-1.53675781 12.62859375 -1.76492188 13.3040625 -2 14 C-3.48828125 12.69921875 -3.48828125 12.69921875 -5 11 C-5.1875 7.8125 -5.1875 7.8125 -5 5 C-4.01 4.67 -3.02 4.34 -2 4 C-0.79117904 1.99983534 -0.79117904 1.99983534 0 0 Z " fill="#2B0609" transform="translate(738,450)"/>
<path d="M0 0 C2.4375 0.8125 2.4375 0.8125 5 2 C5.33 2.99 5.66 3.98 6 5 C3.36 5.99 0.72 6.98 -2 8 C-1.125 1.125 -1.125 1.125 0 0 Z " fill="#220507" transform="translate(840,426)"/>
<path d="M0 0 C-2.13432142 3.20148213 -2.68419896 3.52206739 -6.125 4.6875 C-6.84945312 4.93886719 -7.57390625 5.19023437 -8.3203125 5.44921875 C-9.15175781 5.72185547 -9.15175781 5.72185547 -10 6 C-10 5.34 -10 4.68 -10 4 C-10.66 3.67 -11.32 3.34 -12 3 C-7.89542386 0.01485372 -5.02254631 -0.2954439 0 0 Z " fill="#42181B" transform="translate(755,428)"/>
<path d="M0 0 C0.33 0 0.66 0 1 0 C1 4.62 1 9.24 1 14 C0.01 13.34 -0.98 12.68 -2 12 C-1.85904936 10.3745692 -1.71207913 8.74965949 -1.5625 7.125 C-1.48128906 6.22007812 -1.40007813 5.31515625 -1.31640625 4.3828125 C-1 2 -1 2 0 0 Z " fill="#350B0E" transform="translate(742,461)"/>
<path d="M0 0 C0.66 0 1.32 0 2 0 C0.5140084 4.59306496 -1.85014682 7.43569245 -5 11 C-5.33 10.01 -5.66 9.02 -6 8 C-4.85546875 5.95703125 -4.85546875 5.95703125 -3.1875 3.8125 C-2.37345703 2.73935547 -2.37345703 2.73935547 -1.54296875 1.64453125 C-1.03378906 1.10183594 -0.52460937 0.55914062 0 0 Z " fill="#2F1517" transform="translate(846,451)"/>
<path d="M0 0 C0.33 0 0.66 0 1 0 C1 3.3 1 6.6 1 10 C1.66 10 2.32 10 3 10 C3 11.98 3 13.96 3 16 C2.01 15.34 1.02 14.68 0 14 C-0.29296875 10.7421875 -0.29296875 10.7421875 -0.1875 6.875 C-0.16042969 5.59367187 -0.13335938 4.31234375 -0.10546875 2.9921875 C-0.07066406 2.00476563 -0.03585937 1.01734375 0 0 Z " fill="#AF1B21" transform="translate(743,462)"/>
<path d="M0 0 C1.77706209 2.66559313 2.87548273 5.0280615 4 8 C2.68 8 1.36 8 0 8 C-0.66 7.34 -1.32 6.68 -2 6 C-1.34 6 -0.68 6 0 6 C0 4.02 0 2.04 0 0 Z " fill="#AD242A" transform="translate(775,494)"/>
<path d="M0 0 C0.226875 0.61875 0.45375 1.2375 0.6875 1.875 C2.37929835 4.61410209 3.99244161 5.05024472 7 6 C6.67 7.32 6.34 8.64 6 10 C3.36 7.69 0.72 5.38 -2 3 C-1.34 2.67 -0.68 2.34 0 2 C0 1.34 0 0.68 0 0 Z " fill="#531A1E" transform="translate(763,488)"/>
<path d="M0 0 C1.32 0 2.64 0 4 0 C4.33 0.99 4.66 1.98 5 3 C5.66 3.66 6.32 4.32 7 5 C6.01 5.33 5.02 5.66 4 6 C3.34 5.01 2.68 4.02 2 3 C1.01 3.33 0.02 3.66 -1 4 C-1.33 3.34 -1.66 2.68 -2 2 C-1.34 2 -0.68 2 0 2 C0 1.34 0 0.68 0 0 Z " fill="#C0262C" transform="translate(761,487)"/>
<path d="M0 0 C0.33 0.99 0.66 1.98 1 3 C-3.75 7 -3.75 7 -6 7 C-4.60667426 3.63279613 -3.0210714 2.0140476 0 0 Z " fill="#F44146" transform="translate(814,483)"/>
<path d="M0 0 C2.475 0.99 2.475 0.99 5 2 C5 3.32 5 4.64 5 6 C3.02 4.68 1.04 3.36 -1 2 C-0.67 1.34 -0.34 0.68 0 0 Z " fill="#F43D41" transform="translate(746,477)"/>
<path d="M0 0 C0.66 0.66 1.32 1.32 2 2 C1.68134222 5.29279709 0.45484649 6.86535088 -2 9 C-2 5.20442119 -1.49821059 3.37097383 0 0 Z " fill="#E7343C" transform="translate(736,437)"/>
<path d="M0 0 C-1.26607607 0.53229326 -2.53810412 1.05044544 -3.8125 1.5625 C-4.52019531 1.85253906 -5.22789062 2.14257812 -5.95703125 2.44140625 C-8 3 -8 3 -11 2 C-11 1.34 -11 0.68 -11 0 C-6.97959015 -0.69584017 -3.91736581 -1.1700097 0 0 Z " fill="#E14044" transform="translate(835,425)"/>
<path d="M0 0 C2.31 0 4.62 0 7 0 C7 1.32 7 2.64 7 4 C4.625 3.6875 4.625 3.6875 2 3 C1.34 2.01 0.68 1.02 0 0 Z " fill="#631216" transform="translate(754,485)"/>
<path d="M0 0 C0.99 0.33 1.98 0.66 3 1 C1.84826645 3.46800047 0.95216435 5.04783565 -1 7 C-1.625 4.625 -1.625 4.625 -2 2 C-1.34 1.34 -0.68 0.68 0 0 Z " fill="#D42B32" transform="translate(739,434)"/>
<path d="M0 0 C0.66 0.99 1.32 1.98 2 3 C0.1875 4.5625 0.1875 4.5625 -2 6 C-2.99 5.67 -3.98 5.34 -5 5 C-3.35 3.35 -1.7 1.7 0 0 Z " fill="#B41E26" transform="translate(839,460)"/>
<path d="M0 0 C0.99 0 1.98 0 3 0 C3 0.99 3 1.98 3 3 C0 5.1875 0 5.1875 -3 7 C-1.125 2.25 -1.125 2.25 0 0 Z " fill="#46090C" transform="translate(781,444)"/>
<path d="M0 0 C0.66 0 1.32 0 2 0 C3.125 5.75 3.125 5.75 2 8 C1.34 8 0.68 8 0 8 C0 5.36 0 2.72 0 0 Z " fill="#060202" transform="translate(846,443)"/>
<path d="M0 0 C2.4375 0.8125 2.4375 0.8125 5 2 C5.33 2.99 5.66 3.98 6 5 C3.69 4.34 1.38 3.68 -1 3 C-0.67 2.01 -0.34 1.02 0 0 Z " fill="#3A1418" transform="translate(840,426)"/>
</svg>
